<svg width="11" height="19" viewBox="0 0 11 19" fill="none" xmlns="http://www.w3.org/2000/svg">
<path d="M1.97545 18.9573C2.06056 18.9275 2.20488 18.8644 2.28999 18.8124C2.3788 18.7604 4.32525 16.8324 6.61585 14.5255C10.3274 10.7921 10.79 10.3128 10.864 10.1382C11.0453 9.69618 11.0453 9.30241 10.864 8.86035C10.79 8.68575 10.3237 8.20282 6.59735 4.45455C1.77932 -0.389588 2.23448 0.00789887 1.50549 0.00789881C1.10954 0.00789877 1.06513 0.0153284 0.857903 0.115629C0.258424 0.412815 -0.0931216 1.09263 0.0215929 1.73158C0.117805 2.2628 -0.0598175 2.06592 3.79608 5.9442L7.33375 9.4993L3.79608 13.0581C-0.0598188 16.9327 0.117804 16.7358 0.0215916 17.267C-0.0931231 17.906 0.258422 18.5895 0.857901 18.8792C1.05033 18.9758 1.12434 18.9907 1.44998 18.9981C1.68681 19.0056 1.87553 18.9907 1.97545 18.9573Z" fill="black"/>
</svg>
