<svg width="32" height="22" viewBox="0 0 32 22" fill="none" xmlns="http://www.w3.org/2000/svg">
<path d="M6.92667 3.05556H6.42667V3.55556C6.42667 4.37012 6.11135 5.14876 5.55411 5.72083C4.99731 6.29247 4.24495 6.61111 3.46333 6.61111H2.96333V7.11111V14.2222V14.7222H3.46333C4.24495 14.7222 4.99731 15.0409 5.55411 15.6125C6.11135 16.1846 6.42667 16.9632 6.42667 17.7778V18.2778H6.92667H24.2433H24.7433V17.7778C24.7433 16.9632 25.0586 16.1846 25.6159 15.6125C26.1727 15.0409 26.925 14.7222 27.7067 14.7222H28.2067V14.2222V7.11111V6.61111H27.7067C26.925 6.61111 26.1727 6.29247 25.6159 5.72083C25.0586 5.14876 24.7433 4.37012 24.7433 3.55556V3.05556H24.2433H6.92667ZM0.5 0.5H30.67V20.8333H0.5V0.5ZM15.585 5.83333C16.8259 5.83333 18.0187 6.33928 18.9003 7.24431C19.7822 8.14979 20.28 9.38061 20.28 10.6667C20.28 11.9527 19.7822 13.1835 18.9003 14.089C18.0187 14.9941 16.8259 15.5 15.585 15.5C14.3441 15.5 13.1513 14.9941 12.2697 14.089C11.3878 13.1835 10.89 11.9527 10.89 10.6667C10.89 9.38061 11.3878 8.14979 12.2697 7.24431C13.1513 6.33928 14.3441 5.83333 15.585 5.83333Z" fill="#103D81" stroke="black"/>
</svg>
