<svg width="32" height="29" viewBox="0 0 32 29" fill="none" xmlns="http://www.w3.org/2000/svg">
<path d="M7.06667 29V25.7778H14.1333V20.7833C12.6906 20.488 11.4021 19.9305 10.2679 19.111C9.13367 18.2915 8.30216 17.2647 7.77333 16.0306C5.565 15.7889 3.71707 14.9098 2.22953 13.3932C0.742002 11.8766 -0.00117638 10.0974 1.39768e-06 8.05556V6.44444C1.39768e-06 5.55833 0.346268 4.7995 1.0388 4.16794C1.73133 3.53639 2.56285 3.22115 3.53333 3.22222H7.06667V0H24.7333V3.22222H28.2667C29.2383 3.22222 30.0704 3.538 30.763 4.16956C31.4555 4.80111 31.8012 5.55941 31.8 6.44444V8.05556C31.8 10.0963 31.0562 11.8755 29.5687 13.3932C28.0812 14.9108 26.2338 15.79 24.0267 16.0306C23.4967 17.2657 22.6646 18.2931 21.5304 19.1126C20.3962 19.9321 19.1083 20.489 17.6667 20.7833V25.7778H24.7333V29H7.06667ZM7.06667 12.5667V6.44444H3.53333V8.05556C3.53333 9.07593 3.85722 9.99587 4.505 10.8154C5.15278 11.6349 6.00667 12.2187 7.06667 12.5667ZM24.7333 12.5667C25.7933 12.2176 26.6472 11.6333 27.295 10.8138C27.9428 9.99426 28.2667 9.07485 28.2667 8.05556V6.44444H24.7333V12.5667Z" fill="#103D81"/>
</svg>
