<svg width="22" height="24" viewBox="0 0 22 24" fill="none" xmlns="http://www.w3.org/2000/svg">
<path d="M10.5879 0.731445C4.74973 0.731445 0 5.87273 0 12.1922C0 18.5116 4.74973 23.6529 10.5879 23.6529C16.4261 23.6529 21.1758 18.5116 21.1758 12.1922C21.1758 5.87273 16.4261 0.731445 10.5879 0.731445ZM10.5879 5.43035C10.8601 5.43035 11.1262 5.51773 11.3526 5.68144C11.5789 5.84515 11.7554 6.07784 11.8595 6.35009C11.9637 6.62233 11.991 6.9219 11.9379 7.21091C11.8848 7.49992 11.7537 7.76539 11.5612 7.97376C11.3687 8.18213 11.1234 8.32402 10.8564 8.38151C10.5894 8.439 10.3127 8.4095 10.0612 8.29673C9.80965 8.18396 9.59468 7.993 9.44343 7.74799C9.29219 7.50297 9.21146 7.21492 9.21146 6.92024C9.21146 6.5251 9.35648 6.14614 9.61461 5.86673C9.87274 5.58732 10.2228 5.43035 10.5879 5.43035ZM13.129 18.381H8.47031C8.24567 18.381 8.03022 18.2844 7.87137 18.1124C7.71252 17.9405 7.62328 17.7073 7.62328 17.4641C7.62328 17.221 7.71252 16.9877 7.87137 16.8158C8.03022 16.6439 8.24567 16.5473 8.47031 16.5473H9.95262V11.5045H9.10559C8.88094 11.5045 8.66549 11.4079 8.50664 11.236C8.3478 11.0641 8.25855 10.8308 8.25855 10.5877C8.25855 10.3445 8.3478 10.1113 8.50664 9.93936C8.66549 9.76742 8.88094 9.67082 9.10559 9.67082H10.7996C11.0243 9.67082 11.2397 9.76742 11.3986 9.93936C11.5574 10.1113 11.6467 10.3445 11.6467 10.5877V16.5473H13.129C13.3536 16.5473 13.5691 16.6439 13.7279 16.8158C13.8868 16.9877 13.976 17.221 13.976 17.4641C13.976 17.7073 13.8868 17.9405 13.7279 18.1124C13.5691 18.2844 13.3536 18.381 13.129 18.381Z" fill="#CA257E"/>
</svg>
