<svg width="84" height="67" viewBox="0 0 84 67" fill="none" xmlns="http://www.w3.org/2000/svg">
<path d="M30.6904 6.24219H52.9777V46.2888H30.6904V6.24219Z" fill="#FF5F00"/>
<path d="M15.6195 66.4457V62.2007C15.6195 60.573 14.6287 59.512 12.9305 59.512C12.0816 59.512 11.1617 59.795 10.5248 60.7148C10.0298 59.9365 9.32231 59.512 8.26097 59.512C7.55319 59.512 6.84605 59.7241 6.27977 60.5024V59.6535H4.79395V66.4457H6.27977V62.6957C6.27977 61.4932 6.91664 60.9269 7.9074 60.9269C8.89752 60.9269 9.39322 61.5638 9.39322 62.6957V66.4457H10.879V62.6957C10.879 61.4932 11.5862 60.9269 12.506 60.9269C13.4968 60.9269 13.9919 61.5638 13.9919 62.6957V66.4457H15.6195ZM37.6235 59.6535H35.2181V57.6017H33.7323V59.6535H32.388V60.9975H33.732V64.111C33.732 65.6677 34.3689 66.5872 36.0671 66.5872C36.704 66.5872 37.4111 66.3751 37.9068 66.0922L37.482 64.8184C37.0575 65.1014 36.5625 65.1723 36.2086 65.1723C35.5011 65.1723 35.2181 64.7478 35.2181 64.0401V60.9975H37.6235V59.6535ZM50.2178 59.5117C49.3689 59.5117 48.8029 59.9365 48.449 60.5024V59.6535H46.9632V66.4457H48.449V62.6251C48.449 61.4932 48.9441 60.8563 49.8639 60.8563C50.1469 60.8563 50.5008 60.9272 50.7838 60.9978L51.2083 59.5829C50.9253 59.512 50.5008 59.512 50.2178 59.512V59.5117ZM31.1851 60.2195C30.4774 59.7241 29.4869 59.512 28.4256 59.512C26.7277 59.512 25.5958 60.361 25.5958 61.7053C25.5958 62.8375 26.4447 63.4741 27.9305 63.6865L28.638 63.7574C29.4163 63.8986 29.8408 64.111 29.8408 64.4649C29.8408 64.9599 29.2749 65.3138 28.2841 65.3138C27.2937 65.3138 26.5153 64.9599 26.0199 64.6063L25.3125 65.7383C26.0908 66.3042 27.1522 66.5872 28.2132 66.5872C30.1944 66.5872 31.3266 65.6677 31.3266 64.3939C31.3266 63.1911 30.4068 62.5542 28.9915 62.3422L28.2841 62.2713C27.6472 62.2003 27.1522 62.0592 27.1522 61.6347C27.1522 61.1393 27.6472 60.8563 28.4256 60.8563C29.2749 60.8563 30.1238 61.2099 30.5483 61.4223L31.1851 60.2195ZM70.6658 59.512C69.8165 59.512 69.2505 59.9365 68.8966 60.5024V59.6535H67.4108V66.4457H68.8966V62.6251C68.8966 61.4932 69.392 60.8563 70.3115 60.8563C70.5949 60.8563 70.9487 60.9272 71.2317 60.9978L71.6562 59.5829C71.3732 59.512 70.9487 59.512 70.6658 59.512ZM51.7037 63.0496C51.7037 65.1014 53.1186 66.5872 55.3122 66.5872C56.3026 66.5872 57.0101 66.3751 57.7175 65.8092L57.0101 64.6063C56.4441 65.0308 55.8781 65.2429 55.2413 65.2429C54.0384 65.2429 53.1895 64.3939 53.1895 63.0496C53.1895 61.7762 54.0384 60.9269 55.2413 60.8563C55.8781 60.8563 56.4441 61.0684 57.0101 61.4932L57.7175 60.2904C57.0101 59.7241 56.3026 59.512 55.3122 59.512C53.1186 59.512 51.7037 60.9978 51.7037 63.0496ZM65.4299 63.0496V59.6535H63.9441V60.5024C63.4487 59.8659 62.7413 59.512 61.8214 59.512C59.9111 59.512 58.4253 60.9978 58.4253 63.0496C58.4253 65.1014 59.9111 66.5872 61.8214 66.5872C62.8119 66.5872 63.5196 66.2337 63.9441 65.5968V66.4457H65.4299V63.0496ZM59.9817 63.0496C59.9817 61.8468 60.7601 60.8563 62.0335 60.8563C63.2363 60.8563 64.0856 61.7762 64.0856 63.0496C64.0856 64.2525 63.2363 65.2429 62.0335 65.2429C60.7601 65.172 59.9817 64.2525 59.9817 63.0496ZM42.2228 59.512C40.2416 59.512 38.8263 60.9269 38.8263 63.0496C38.8263 65.1723 40.2412 66.5872 42.2934 66.5872C43.2838 66.5872 44.2746 66.3042 45.0529 65.6677L44.3451 64.6063C43.7792 65.0308 43.0717 65.3138 42.3643 65.3138C41.4444 65.3138 40.5245 64.8893 40.3122 63.6862H45.3359V63.1205C45.4068 60.9269 44.1331 59.512 42.2224 59.512H42.2228ZM42.2228 60.7854C43.1423 60.7854 43.7795 61.3517 43.9207 62.4131H40.3831C40.5246 61.4932 41.1614 60.7854 42.2228 60.7854ZM79.0853 63.0496V56.9648H77.5995V60.5024C77.1041 59.8659 76.3966 59.512 75.4768 59.512C73.5665 59.512 72.0807 60.9978 72.0807 63.0496C72.0807 65.1014 73.5665 66.5872 75.4768 66.5872C76.4676 66.5872 77.175 66.2337 77.5995 65.5968V66.4457H79.0853V63.0496ZM73.6374 63.0496C73.6374 61.8468 74.4154 60.8563 75.6892 60.8563C76.892 60.8563 77.741 61.7762 77.741 63.0496C77.741 64.2525 76.892 65.2429 75.6892 65.2429C74.4154 65.172 73.6374 64.2525 73.6374 63.0496ZM23.9681 63.0496V59.6535H22.4823V60.5024C21.9869 59.8659 21.2795 59.512 20.3596 59.512C18.4493 59.512 16.9635 60.9978 16.9635 63.0496C16.9635 65.1014 18.4493 66.5872 20.3596 66.5872C21.3504 66.5872 22.0578 66.2337 22.4823 65.5968V66.4457H23.9681V63.0496ZM18.4493 63.0496C18.4493 61.8468 19.2277 60.8563 20.5011 60.8563C21.7039 60.8563 22.5532 61.7762 22.5532 63.0496C22.5532 64.2525 21.7039 65.2429 20.5011 65.2429C19.2277 65.172 18.4493 64.2525 18.4493 63.0496Z" fill="white"/>
<path d="M32.1047 26.2653C32.1047 18.1287 35.9253 10.9117 41.7976 6.24185C37.482 2.84573 32.0341 0.793945 26.0908 0.793945C12.0103 0.793945 0.619141 12.1851 0.619141 26.2653C0.619141 40.3451 12.0103 51.7366 26.0905 51.7366C32.0338 51.7366 37.4817 49.6849 41.7976 46.2884C35.9253 41.6895 32.1047 34.4019 32.1047 26.2653Z" fill="#EB001B"/>
<path d="M83.0467 26.2653C83.0467 40.3451 71.6555 51.7366 57.5753 51.7366C51.632 51.7366 46.1841 49.6849 41.8682 46.2884C47.8114 41.6189 51.5615 34.4019 51.5615 26.2653C51.5615 18.1287 47.7405 10.9117 41.8682 6.24185C46.1838 2.84573 51.632 0.793945 57.5753 0.793945C71.6555 0.793945 83.047 12.256 83.047 26.2653H83.0467Z" fill="#F79E1B"/>
</svg>
