<svg width="148" height="40" viewBox="0 0 148 40" fill="none" xmlns="http://www.w3.org/2000/svg">
<rect x="0.465399" y="0.465399" width="147.066" height="38.1627" rx="13.4966" fill="#E7D0EF" fill-opacity="0.23" stroke="#D26060" stroke-width="0.930797"/>
<path d="M91.6871 0.465399H134.038C141.492 0.465399 147.535 6.50801 147.535 13.962V25.1315C147.535 32.5855 141.492 38.6281 134.038 38.6281H91.6871V0.465399Z" fill="white" stroke="#D26060" stroke-width="0.930797"/>
<path fill-rule="evenodd" clip-rule="evenodd" d="M104.524 20.2761V16.6045H105.838V20.2761H109.51V21.5902H105.838V25.2619H104.524V21.5902H100.853V20.2761H104.524Z" fill="black"/>
<path fill-rule="evenodd" clip-rule="evenodd" d="M130.638 21.5904V20.2764H139.295V21.5904H130.638Z" fill="black"/>
<g clip-path="url(#clip0_114_14630)">
<path d="M22.8697 6.32234C23.0703 5.88275 23.4445 5.75877 23.7556 5.74524C24.229 5.7227 24.725 6.04957 25.1916 6.43505C25.523 6.80926 25.9197 7.09781 26.3796 7.30069C26.6974 7.4134 27.013 7.43595 27.3331 7.42017C27.784 7.39762 28.2416 7.29844 28.6947 7.27589L28.7195 7.27364L28.9247 7.25561C29.4431 7.23081 29.9323 7.35254 30.3967 7.6208C30.8228 8.00853 31.0099 8.49095 30.9513 9.07255C30.8521 9.55271 30.9377 9.99229 31.206 10.3913C31.6681 10.7159 32.1528 11 32.6623 11.2412C33.1898 11.5297 33.5211 11.9648 33.6654 12.5441C33.7173 13.1573 33.4332 13.5495 32.8201 13.7186C32.022 13.9192 30.949 13.9192 30.045 14.6181C28.724 15.7204 28.3092 16.8318 27.7344 17.0008C27.4526 16.6807 25.6943 15.3214 22.7457 14.6699C22.2182 12.8507 21.8981 8.45939 22.8697 6.32234Z" fill="#FCC21B"/>
<path d="M25.8486 14.2828C26.3671 13.2458 27.8437 11.4221 28.1976 11.7828C28.547 12.1751 27.7422 14.2129 27.1764 15.2116C26.9758 14.9997 26.3288 14.5556 26.047 14.4812" fill="#D19B15"/>
<path d="M28.4568 17.6031C28.1525 17.6031 27.855 17.4475 27.6859 17.168C26.1349 14.6161 22.6228 14.8844 22.589 14.8889C22.093 14.9295 21.6557 14.5643 21.6129 14.0706C21.5919 13.8331 21.6657 13.597 21.8182 13.4137C21.9706 13.2305 22.1893 13.1149 22.4267 13.0923C22.616 13.0742 27.0863 12.7068 29.2278 16.2347C29.4871 16.6608 29.3495 17.2153 28.9257 17.4723C28.777 17.5602 28.6169 17.6031 28.4568 17.6031Z" fill="#8D6E63"/>
<path d="M29.1035 32.6273C25.242 33.5786 19.8745 33.5109 16.04 32.7535C12.4512 32.0434 9.70324 29.9267 10.0188 25.7608C10.3389 21.5453 13.132 17.5755 16.9733 15.8262C20.6906 14.1332 25.6793 13.3081 28.3078 17.1494C28.9615 18.1052 30.2104 20.2265 30.269 21.268C30.2735 21.3514 30.278 21.4258 30.296 21.4979C30.3005 21.7594 30.4065 22.0232 30.6635 22.217C32.3159 23.4682 33.5196 25.1273 33.7406 27.4019C34.0021 30.1138 31.4367 32.0524 29.1035 32.6273Z" fill="#FCC21B"/>
<path d="M25.6805 25.6514C25.2116 24.8895 24.3482 24.0622 23.5321 23.3521L24.1656 21.5982C24.7292 22.0378 25.2251 22.4504 25.6128 22.8065C25.676 22.8674 25.7751 22.8719 25.8473 22.8201L27.299 21.7403C27.3396 21.7087 27.3644 21.6636 27.3712 21.6118C27.3736 21.5864 27.3706 21.5609 27.3624 21.5368C27.3543 21.5127 27.3411 21.4906 27.3238 21.472C26.8933 20.9918 25.96 20.151 24.9388 19.4589L25.3108 18.431C25.3536 18.3138 25.295 18.1853 25.1755 18.1402L23.469 17.5225C23.3518 17.4797 23.221 17.5405 23.1782 17.6578L22.9009 18.4265C21.2936 17.9283 20.0177 18.0883 19.0168 18.9247C18.2323 19.5829 17.8942 20.5229 18.1331 21.3751C18.3766 22.2835 19.089 22.9057 19.9907 23.6925L20.1056 23.7939C20.3153 23.9742 20.5385 24.1613 20.7571 24.3485L19.9862 26.481C18.974 25.8182 18.1264 24.9007 17.9821 24.7001C17.9551 24.6629 17.9149 24.6372 17.8697 24.6284C17.8245 24.6197 17.7777 24.6284 17.7387 24.6528L16.066 25.7213C16.0254 25.7461 15.9961 25.7889 15.9848 25.8385C15.9758 25.8859 15.9848 25.9355 16.0119 25.976C16.5146 26.7335 17.3374 27.5811 18.2143 28.2438C18.424 28.4016 18.7395 28.6226 19.1273 28.8547L18.8365 29.655C18.7959 29.7722 18.8545 29.9007 18.9717 29.9436L20.6805 30.5635C20.7977 30.6063 20.9285 30.5455 20.9713 30.4282L21.2125 29.761C22.7724 30.1848 24.143 29.939 25.2026 29.0328C26.226 28.1559 26.4018 26.9251 25.6805 25.6514ZM22.1435 20.5275L21.6769 21.8192C21.2418 21.481 21.0096 21.2263 21.1742 20.8611C21.3455 20.4869 21.7715 20.4621 22.1435 20.5275ZM22.6056 25.9152C22.9054 26.206 23.1173 26.4742 23.1376 26.7199C23.1467 26.8597 23.0948 26.995 22.9731 27.1347C22.7612 27.3804 22.423 27.4278 22.0736 27.385L22.6056 25.9152Z" fill="#424242"/>
</g>
<path d="M48.7683 24.9706C49.3042 24.9706 49.7552 24.8921 50.1211 24.7353C50.5002 24.5785 50.8204 24.402 51.0818 24.2059C51.3432 24.0099 51.572 23.8334 51.768 23.6766C51.9771 23.5197 52.1863 23.4413 52.3954 23.4413C52.6568 23.4413 52.7875 23.6374 52.7875 24.0295C52.7875 24.2386 52.7614 24.4935 52.7091 24.7941C52.6568 25.0817 52.5849 25.4084 52.4934 25.7744C52.4411 25.9966 52.3104 26.2384 52.1013 26.4998C51.9053 26.7612 51.6308 27.0096 51.2779 27.2448C50.925 27.467 50.4871 27.6566 49.9643 27.8134C49.4545 27.9572 48.8664 28.0291 48.1998 28.0291C47.5332 28.0291 46.8666 27.931 46.2 27.735C45.5334 27.5389 44.9387 27.2056 44.4159 26.7351C43.893 26.2645 43.4682 25.6306 43.1415 24.8333C42.8147 24.036 42.6513 23.0361 42.6513 21.8337C42.6513 21.4023 42.6775 20.9056 42.7298 20.3436C42.7951 19.7685 42.9128 19.1803 43.0827 18.5791C43.2526 17.9779 43.4879 17.3897 43.7885 16.8146C44.1022 16.2264 44.5008 15.7036 44.9844 15.2461C45.468 14.7887 46.0562 14.4227 46.7489 14.1482C47.4547 13.8607 48.2913 13.7169 49.2585 13.7169C50.0296 13.7169 50.6962 13.8084 51.2583 13.9914C51.8334 14.1743 52.3039 14.4292 52.6699 14.756C53.0489 15.0697 53.3234 15.4422 53.4933 15.8735C53.6763 16.3048 53.7678 16.7623 53.7678 17.2459C53.7678 18.0824 53.5195 18.6967 53.0228 19.0888C52.5392 19.4679 51.8464 19.6574 50.9446 19.6574C50.657 19.6574 50.474 19.6378 50.3956 19.5986C50.3303 19.5463 50.2976 19.4483 50.2976 19.3045C50.2845 18.8601 50.2714 18.4745 50.2584 18.1478C50.2453 17.821 50.1996 17.5531 50.1211 17.3439C50.0427 17.1217 49.9185 16.9649 49.7486 16.8734C49.5918 16.7688 49.3696 16.7166 49.082 16.7166C48.6638 16.7166 48.3043 16.808 48.0037 16.991C47.7162 17.161 47.4678 17.3897 47.2587 17.6772C47.0626 17.9517 46.8993 18.2654 46.7685 18.6183C46.6509 18.9712 46.5529 19.3307 46.4745 19.6966C46.4091 20.0626 46.3634 20.4155 46.3372 20.7553C46.3242 21.0952 46.3176 21.3893 46.3176 21.6376C46.3176 22.8401 46.5137 23.6962 46.9058 24.2059C47.311 24.7157 47.9318 24.9706 48.7683 24.9706ZM53.8107 25.4215C53.8107 24.2452 54.34 23.3237 55.3987 22.6571C56.4575 21.9905 58.0194 21.6311 60.0845 21.5788C60.0976 21.435 60.1041 21.3174 60.1041 21.2259C60.1172 21.1213 60.1237 20.9971 60.1237 20.8534C60.1237 20.4351 60.0453 20.1018 59.8885 19.8535C59.7316 19.6051 59.4049 19.481 58.9082 19.481C58.6337 19.481 58.4115 19.5202 58.2416 19.5986C58.0717 19.677 57.9344 19.7881 57.8299 19.9319C57.7253 20.0626 57.6403 20.226 57.575 20.422C57.5096 20.6181 57.4508 20.8338 57.3985 21.069C57.3724 21.1867 57.3136 21.2651 57.2221 21.3043C57.1306 21.3304 56.9868 21.3435 56.7908 21.3435C55.4576 21.3435 54.791 20.8403 54.791 19.8339C54.791 19.4287 54.8825 19.0431 55.0654 18.6771C55.2615 18.3112 55.5425 17.9975 55.9085 17.7361C56.2875 17.4616 56.7581 17.2459 57.3201 17.0891C57.8821 16.9322 58.5357 16.8538 59.2807 16.8538C60.7315 16.8538 61.7837 17.1544 62.4372 17.7557C63.0907 18.3569 63.4175 19.2065 63.4175 20.3044C63.4175 20.4482 63.3979 20.7096 63.3587 21.0886C63.3325 21.4546 63.2933 21.8467 63.241 22.265C63.2018 22.6702 63.1626 23.0557 63.1234 23.4217C63.0973 23.7877 63.0842 24.0426 63.0842 24.1863C63.0842 24.5131 63.143 24.7484 63.2606 24.8921C63.3783 25.0229 63.509 25.1143 63.6528 25.1666C63.8096 25.2189 63.9468 25.2581 64.0645 25.2843C64.1821 25.3104 64.2409 25.3758 64.2409 25.4803C64.2409 25.7679 64.2017 26.062 64.1233 26.3626C64.0449 26.6632 63.9142 26.9377 63.7312 27.186C63.5613 27.4344 63.3195 27.637 63.0058 27.7938C62.7052 27.9506 62.3326 28.0291 61.8882 28.0291C61.2609 28.0291 60.7903 27.8788 60.4766 27.5781C60.1629 27.2775 59.9538 26.8593 59.8492 26.3234C59.5356 26.7808 59.1238 27.1795 58.6141 27.5193C58.1174 27.8591 57.4639 28.0291 56.6535 28.0291C56.2614 28.0291 55.8889 27.9833 55.536 27.8918C55.1962 27.8003 54.8955 27.65 54.6341 27.4409C54.3858 27.2318 54.1832 26.9638 54.0263 26.6371C53.8826 26.2972 53.8107 25.892 53.8107 25.4215ZM59.9081 23.1864C59.5682 23.1864 59.2349 23.2126 58.9082 23.2649C58.5814 23.3172 58.2873 23.4021 58.0259 23.5197C57.7776 23.6243 57.575 23.7681 57.4181 23.9511C57.2613 24.1341 57.1829 24.3563 57.1829 24.6177C57.1829 24.9183 57.2744 25.1274 57.4573 25.2451C57.6534 25.3627 57.8625 25.4215 58.0847 25.4215C58.2939 25.4215 58.503 25.3758 58.7121 25.2843C58.9212 25.1928 59.1042 25.0555 59.2611 24.8725C59.431 24.6765 59.5748 24.4412 59.6924 24.1667C59.81 23.8923 59.8819 23.5655 59.9081 23.1864ZM69.6222 16.8538C70.7332 16.8538 71.5501 17.076 72.073 17.5204C72.5958 17.9517 72.8572 18.5072 72.8572 19.1869C72.8572 19.762 72.6742 20.1998 72.3082 20.5005C71.9553 20.8011 71.439 20.9514 70.7594 20.9514C70.5764 20.9514 70.4522 20.9318 70.3869 20.8926C70.3215 20.8534 70.2888 20.7815 70.2888 20.6769C70.2888 20.5593 70.2758 20.4286 70.2496 20.2848C70.2366 20.128 70.1908 19.9842 70.1124 19.8535C70.047 19.7097 69.9359 19.5921 69.7791 19.5006C69.6353 19.4091 69.4262 19.3633 69.1517 19.3633C68.7857 19.3633 68.4917 19.4548 68.2695 19.6378C68.0473 19.8077 67.9362 20.0234 67.9362 20.2848C67.9362 20.5593 68.0473 20.7815 68.2695 20.9514C68.5047 21.1082 68.7923 21.2586 69.1321 21.4023C69.485 21.5461 69.8641 21.6964 70.2692 21.8533C70.6744 21.997 71.0469 22.1931 71.3868 22.4414C71.7397 22.6898 72.0272 23.0035 72.2494 23.3825C72.4847 23.7485 72.6023 24.2256 72.6023 24.8137C72.6023 25.7548 72.269 26.526 71.6024 27.1272C70.9358 27.7284 69.9359 28.0291 68.6028 28.0291C68.2368 28.0291 67.812 27.9964 67.3284 27.931C66.8578 27.8788 66.4069 27.7938 65.9756 27.6762C65.5443 27.5455 65.1783 27.3755 64.8777 27.1664C64.5901 26.9573 64.4463 26.6959 64.4463 26.3822C64.4463 26.2645 64.4659 26.1208 64.5052 25.9509C64.5574 25.7809 64.6293 25.6176 64.7208 25.4607C64.8254 25.3039 64.943 25.1732 65.0737 25.0686C65.2175 24.951 65.3874 24.8921 65.5835 24.8921C65.7403 24.8921 65.8841 24.9314 66.0148 25.0098C66.1455 25.0882 66.2958 25.1732 66.4657 25.2647C66.6487 25.3431 66.8709 25.4215 67.1323 25.4999C67.3937 25.5783 67.7401 25.6176 68.1714 25.6176C68.4982 25.6176 68.7857 25.5783 69.0341 25.4999C69.2955 25.4215 69.4262 25.2451 69.4262 24.9706C69.4262 24.7222 69.3216 24.5262 69.1125 24.3824C68.9034 24.2256 68.6354 24.0818 68.3087 23.9511C67.995 23.8204 67.6486 23.6831 67.2696 23.5394C66.9036 23.3825 66.5572 23.1799 66.2305 22.9316C65.9168 22.6832 65.6554 22.3695 65.4462 21.9905C65.2371 21.5984 65.1325 21.0952 65.1325 20.4809C65.1325 19.8143 65.2632 19.2522 65.5246 18.7948C65.7991 18.3242 66.1455 17.9452 66.5638 17.6576C66.9951 17.3701 67.4787 17.1675 68.0146 17.0499C68.5505 16.9191 69.0864 16.8538 69.6222 16.8538ZM80.3804 25.4019C80.4196 24.9706 80.4589 24.5196 80.4981 24.0491C80.5504 23.5786 80.5896 23.1276 80.6157 22.6963C80.6549 22.265 80.6876 21.8794 80.7137 21.5396C80.7399 21.1997 80.7529 20.9514 80.7529 20.7945C80.7529 20.4547 80.668 20.1541 80.4981 19.8927C80.3412 19.6182 80.0275 19.481 79.557 19.481C78.9296 19.481 78.4199 19.775 78.0277 20.3632C77.6487 20.9514 77.4265 21.7356 77.3612 22.7159C77.335 22.9904 77.3023 23.376 77.2631 23.8726C77.2239 24.3563 77.1847 24.8529 77.1455 25.3627C77.1063 25.8594 77.0671 26.3103 77.0279 26.7155C77.0017 27.1076 76.9886 27.3494 76.9886 27.4409C76.9886 27.5977 76.956 27.7023 76.8906 27.7546C76.8383 27.8069 76.7272 27.833 76.5573 27.833H75.8515C75.4463 27.833 75.113 27.7938 74.8516 27.7154C74.6033 27.6239 74.4007 27.4997 74.2438 27.3429C74.1001 27.186 73.9955 26.9965 73.9301 26.7743C73.8779 26.539 73.8517 26.2711 73.8517 25.9705C73.8517 25.6829 73.8713 25.2843 73.9105 24.7745C73.9628 24.2517 74.0282 23.5394 74.1066 22.6375C74.185 21.7226 74.2765 20.5593 74.3811 19.1477C74.4856 17.7361 74.5967 15.9846 74.7144 13.8933C74.7274 13.6058 74.7601 13.4359 74.8124 13.3836C74.8516 13.3444 74.9562 13.3248 75.1261 13.3248H75.8907C76.2828 13.3248 76.6096 13.3705 76.871 13.462C77.1324 13.5535 77.3415 13.6777 77.4984 13.8345C77.6552 13.9914 77.7663 14.1743 77.8317 14.3835C77.897 14.5795 77.9297 14.7887 77.9297 15.0109C77.9297 15.2461 77.9036 15.684 77.8513 16.3244C77.8121 16.9649 77.7598 17.7164 77.6945 18.5791C78.0866 17.9256 78.5179 17.4746 78.9884 17.2263C79.472 16.978 80.0798 16.8538 80.8118 16.8538C81.3607 16.8538 81.8378 16.9126 82.243 17.0302C82.6482 17.1479 82.9815 17.3505 83.2429 17.638C83.5174 17.9125 83.7199 18.2785 83.8507 18.7359C83.9814 19.1803 84.0467 19.7358 84.0467 20.4024C84.0467 20.6116 84.0271 20.971 83.9879 21.4807C83.9487 21.9905 83.8964 22.5721 83.831 23.2257C83.7788 23.8792 83.7199 24.5654 83.6546 25.2843C83.6023 25.9901 83.5566 26.6371 83.5174 27.2252C83.5043 27.369 83.4912 27.4801 83.4781 27.5585C83.4651 27.637 83.4389 27.6958 83.3997 27.735C83.3736 27.7742 83.3278 27.8003 83.2625 27.8134C83.1971 27.8265 83.1056 27.833 82.988 27.833H82.3606C81.9424 27.833 81.6025 27.7938 81.3411 27.7154C81.0797 27.637 80.8771 27.5259 80.7333 27.3821C80.5896 27.2383 80.485 27.0618 80.4196 26.8527C80.3674 26.6305 80.3412 26.3822 80.3412 26.1077C80.3412 25.977 80.3412 25.8528 80.3412 25.7352C80.3543 25.6176 80.3674 25.5065 80.3804 25.4019Z" fill="#957B7B"/>
<defs>
<clipPath id="clip0_114_14630">
<rect width="28.8547" height="28.8547" fill="white" transform="translate(7.44531 5.11035)"/>
</clipPath>
</defs>
</svg>
