<svg width="26" height="29" viewBox="0 0 26 29" fill="none" xmlns="http://www.w3.org/2000/svg">
<path d="M25.1278 17.8808L22.4817 15.2348V11.7296C22.4787 9.30728 21.5776 6.97212 19.9527 5.17567C18.3277 3.37922 16.0944 2.24909 13.6845 2.00381V0H11.7296V2.00381C9.31973 2.24909 7.0864 3.37922 5.46147 5.17567C3.83654 6.97212 2.93543 9.30728 2.9324 11.7296V15.2348L0.286398 17.8808C0.103075 18.0641 5.53612e-05 18.3127 0 18.5719V21.5043C0 21.7635 0.102983 22.0121 0.286293 22.1955C0.469604 22.3788 0.718227 22.4817 0.977467 22.4817H7.81974V23.2412C7.79847 24.4813 8.23556 25.6856 9.04722 26.6233C9.85889 27.5611 10.9881 28.1663 12.2183 28.3231C12.8979 28.3905 13.5839 28.3149 14.2325 28.1012C14.881 27.8875 15.4777 27.5404 15.9841 27.0823C16.4904 26.6242 16.8953 26.0652 17.1726 25.4412C17.45 24.8172 17.5937 24.1421 17.5944 23.4592V22.4817H24.4367C24.6959 22.4817 24.9445 22.3788 25.1279 22.1955C25.3112 22.0121 25.4141 21.7635 25.4141 21.5043V18.5719C25.4141 18.3127 25.3111 18.0641 25.1278 17.8808ZM15.6395 23.4592C15.6395 24.2369 15.3305 24.9828 14.7806 25.5327C14.2307 26.0827 13.4848 26.3916 12.7071 26.3916C11.9294 26.3916 11.1835 26.0827 10.6336 25.5327C10.0836 24.9828 9.77467 24.2369 9.77467 23.4592V22.4817H15.6395V23.4592ZM23.4592 20.5268H1.95493V18.9765L4.60094 16.3305C4.78426 16.1473 4.88728 15.8987 4.88734 15.6395V11.7296C4.88734 9.65568 5.7112 7.6667 7.17768 6.20022C8.64417 4.73373 10.6332 3.90987 12.7071 3.90987C14.781 3.90987 16.77 4.73373 18.2365 6.20022C19.7029 7.6667 20.5268 9.65568 20.5268 11.7296V15.6395C20.5269 15.8987 20.6299 16.1473 20.8132 16.3305L23.4592 18.9765V20.5268Z" fill="#103D81"/>
</svg>
