<svg width="31" height="31" viewBox="0 0 31 31" fill="none" xmlns="http://www.w3.org/2000/svg">
<path d="M15.5 31C11.3891 31 7.44666 29.367 4.53984 26.4602C1.63303 23.5533 0 19.6109 0 15.5C0 11.3891 1.63303 7.44666 4.53984 4.53984C7.44666 1.63303 11.3891 0 15.5 0C19.6109 0 23.5533 1.63303 26.4602 4.53984C29.367 7.44666 31 11.3891 31 15.5C31 19.6109 29.367 23.5533 26.4602 26.4602C23.5533 29.367 19.6109 31 15.5 31ZM15.5 27.9C18.7887 27.9 21.9427 26.5936 24.2681 24.2681C26.5936 21.9427 27.9 18.7887 27.9 15.5C27.9 12.2113 26.5936 9.05733 24.2681 6.73188C21.9427 4.40642 18.7887 3.1 15.5 3.1C12.2113 3.1 9.05733 4.40642 6.73188 6.73188C4.40642 9.05733 3.1 12.2113 3.1 15.5C3.1 18.7887 4.40642 21.9427 6.73188 24.2681C9.05733 26.5936 12.2113 27.9 15.5 27.9ZM23.25 13.95V17.05H7.75V13.95H23.25Z" fill="#103D81"/>
</svg>
