<svg width="31" height="33" viewBox="0 0 31 33" fill="none" xmlns="http://www.w3.org/2000/svg">
<path d="M9.57448 16.3333C7.83073 16.3941 6.40451 17.1719 5.29583 18.6667H3.13229C2.24965 18.6667 1.50694 18.4206 0.904167 17.9284C0.301389 17.4362 0 16.7161 0 15.7682C0 11.4783 0.667361 9.33333 2.00208 9.33333C2.06667 9.33333 2.30078 9.46094 2.70443 9.71615C3.10807 9.97135 3.63281 10.2296 4.27865 10.4909C4.92448 10.7522 5.56493 10.8828 6.2 10.8828C6.92118 10.8828 7.63698 10.7431 8.3474 10.4635C8.29358 10.9132 8.26667 11.3142 8.26667 11.6667C8.26667 13.3559 8.7026 14.9115 9.57448 16.3333ZM26.8667 27.9453C26.8667 29.4036 26.4738 30.5551 25.688 31.3997C24.9023 32.2444 23.8582 32.6667 22.5557 32.6667H8.44427C7.14184 32.6667 6.09774 32.2444 5.31198 31.3997C4.52622 30.5551 4.13333 29.4036 4.13333 27.9453C4.13333 27.3012 4.15217 26.6723 4.18984 26.0586C4.22752 25.4449 4.30286 24.7826 4.41589 24.0716C4.52891 23.3607 4.67153 22.7014 4.84375 22.0938C5.01597 21.4861 5.2474 20.8937 5.53802 20.3164C5.82865 19.7391 6.16233 19.247 6.53906 18.8398C6.9158 18.4327 7.37595 18.1076 7.91953 17.8646C8.46311 17.6215 9.06319 17.5 9.71979 17.5C9.82743 17.5 10.0589 17.6306 10.4141 17.8919C10.7693 18.1532 11.1622 18.4449 11.5927 18.7669C12.0233 19.089 12.5991 19.3806 13.3203 19.6419C14.0415 19.9032 14.7681 20.0339 15.5 20.0339C16.2319 20.0339 16.9585 19.9032 17.6797 19.6419C18.4009 19.3806 18.9767 19.089 19.4073 18.7669C19.8378 18.4449 20.2307 18.1532 20.5859 17.8919C20.9411 17.6306 21.1726 17.5 21.2802 17.5C21.9368 17.5 22.5369 17.6215 23.0805 17.8646C23.624 18.1076 24.0842 18.4327 24.4609 18.8398C24.8377 19.247 25.1714 19.7391 25.462 20.3164C25.7526 20.8937 25.984 21.4861 26.1562 22.0938C26.3285 22.7014 26.4711 23.3607 26.5841 24.0716C26.6971 24.7826 26.7725 25.4449 26.8102 26.0586C26.8478 26.6723 26.8667 27.3012 26.8667 27.9453ZM10.3333 4.66667C10.3333 5.95486 9.92969 7.05469 9.1224 7.96615C8.3151 8.8776 7.34097 9.33333 6.2 9.33333C5.05903 9.33333 4.0849 8.8776 3.2776 7.96615C2.47031 7.05469 2.06667 5.95486 2.06667 4.66667C2.06667 3.37847 2.47031 2.27865 3.2776 1.36719C4.0849 0.455729 5.05903 0 6.2 0C7.34097 0 8.3151 0.455729 9.1224 1.36719C9.92969 2.27865 10.3333 3.37847 10.3333 4.66667ZM21.7 11.6667C21.7 13.599 21.0945 15.2487 19.8836 16.6159C18.6727 17.9831 17.2115 18.6667 15.5 18.6667C13.7885 18.6667 12.3273 17.9831 11.1164 16.6159C9.90547 15.2487 9.3 13.599 9.3 11.6667C9.3 9.73438 9.90547 8.08463 11.1164 6.71745C12.3273 5.35026 13.7885 4.66667 15.5 4.66667C17.2115 4.66667 18.6727 5.35026 19.8836 6.71745C21.0945 8.08463 21.7 9.73438 21.7 11.6667ZM31 15.7682C31 16.7161 30.6986 17.4362 30.0958 17.9284C29.4931 18.4206 28.7503 18.6667 27.8677 18.6667H25.7042C24.5955 17.1719 23.1693 16.3941 21.4255 16.3333C22.2974 14.9115 22.7333 13.3559 22.7333 11.6667C22.7333 11.3142 22.7064 10.9132 22.6526 10.4635C23.363 10.7431 24.0788 10.8828 24.8 10.8828C25.4351 10.8828 26.0755 10.7522 26.7214 10.4909C27.3672 10.2296 27.8919 9.97135 28.2956 9.71615C28.6992 9.46094 28.9333 9.33333 28.9979 9.33333C30.3326 9.33333 31 11.4783 31 15.7682ZM28.9333 4.66667C28.9333 5.95486 28.5297 7.05469 27.7224 7.96615C26.9151 8.8776 25.941 9.33333 24.8 9.33333C23.659 9.33333 22.6849 8.8776 21.8776 7.96615C21.0703 7.05469 20.6667 5.95486 20.6667 4.66667C20.6667 3.37847 21.0703 2.27865 21.8776 1.36719C22.6849 0.455729 23.659 0 24.8 0C25.941 0 26.9151 0.455729 27.7224 1.36719C28.5297 2.27865 28.9333 3.37847 28.9333 4.66667Z" fill="#103D81"/>
</svg>
