<svg width="31" height="29" viewBox="0 0 31 29" fill="none" xmlns="http://www.w3.org/2000/svg">
<path d="M22.7333 21.6184H22.5234C22.2759 20.5675 21.8399 19.6011 21.2156 18.7191C20.5913 17.8371 19.8325 17.0771 18.9391 16.439C18.0457 15.801 17.0392 15.3037 15.9198 14.9471C14.8003 14.5906 13.6271 14.4123 12.4 14.4123C11.4528 14.4123 10.5378 14.5202 9.65521 14.736C8.77257 14.9518 7.94913 15.2521 7.1849 15.6368C6.42066 16.0215 5.72639 16.4906 5.10208 17.0442C4.47778 17.5978 3.93958 18.2077 3.4875 18.8739C3.03542 19.5401 2.68559 20.2579 2.43802 21.0273C2.19045 21.7967 2.06667 22.5943 2.06667 23.42H0C0 22.294 0.188368 21.2103 0.565104 20.1687C0.94184 19.1272 1.48542 18.1655 2.19583 17.2835C2.90625 16.4015 3.74583 15.618 4.71458 14.933C5.68333 14.2481 6.78125 13.7086 8.00833 13.3145C6.79201 12.6201 5.84479 11.7475 5.16667 10.6966C4.48854 9.64572 4.1441 8.48223 4.13333 7.20614C4.13333 6.21154 4.34861 5.27794 4.77917 4.40532C5.20972 3.5327 5.79635 2.76798 6.53906 2.11117C7.28177 1.45436 8.15903 0.9383 9.17083 0.56298C10.1826 0.18766 11.259 0 12.4 0C13.541 0 14.612 0.18766 15.613 0.56298C16.6141 0.9383 17.4913 1.44967 18.2448 2.0971C18.9983 2.74453 19.5903 3.50924 20.0208 4.39124C20.4514 5.27324 20.6667 6.21154 20.6667 7.20614C20.6667 7.82542 20.5806 8.43062 20.4083 9.02175C20.2361 9.61288 19.9778 10.1712 19.6333 10.6966C19.2889 11.2221 18.8852 11.7053 18.4224 12.1463C17.9595 12.5873 17.416 12.9767 16.7917 13.3145C17.9972 13.7179 19.1059 14.2715 20.1177 14.9753C21.1295 15.679 22.0014 16.5047 22.7333 17.4524V21.6184ZM6.2 7.20614C6.2 7.95678 6.36146 8.65581 6.68437 9.30324C7.00729 9.95067 7.44861 10.523 8.00833 11.0203C8.56806 11.5176 9.22465 11.907 9.97812 12.1885C10.7316 12.47 11.5389 12.6107 12.4 12.6107C13.2503 12.6107 14.0523 12.47 14.8057 12.1885C15.5592 11.907 16.2158 11.5223 16.7755 11.0344C17.3352 10.5465 17.7819 9.97412 18.1156 9.31731C18.4493 8.6605 18.6108 7.95678 18.6 7.20614C18.6 6.46488 18.4385 5.76585 18.1156 5.10904C17.7927 4.45223 17.3514 3.87987 16.7917 3.39195C16.2319 2.90404 15.57 2.51464 14.8057 2.22377C14.0415 1.9329 13.2396 1.79215 12.4 1.80154C11.5389 1.80154 10.737 1.94228 9.99427 2.22377C9.25156 2.50526 8.59496 2.88996 8.02448 3.37788C7.45399 3.86579 7.00729 4.44285 6.68437 5.10904C6.36146 5.77523 6.2 6.47427 6.2 7.20614ZM26.8667 23.42H31V25.2215H26.8667V28.8246H24.8V25.2215H20.6667V23.42H24.8V19.8169H26.8667V23.42Z" fill="#103D81"/>
</svg>
