<svg width="31" height="37" viewBox="0 0 31 37" fill="none" xmlns="http://www.w3.org/2000/svg">
<path d="M14.6842 36.8574V30.9837C6.51 30.5595 0 23.7721 0 15.5C0 6.95053 6.95053 0 15.5 0C24.0495 0 31 6.95053 31 15.5C31 23.5763 25.3874 31.7016 17.0174 35.7316L14.6842 36.8574ZM15.5 3.26316C8.74526 3.26316 3.26316 8.74526 3.26316 15.5C3.26316 22.2547 8.74526 27.7368 15.5 27.7368H17.9474V31.4895C23.8863 27.7368 27.7368 21.5695 27.7368 15.5C27.7368 8.74526 22.2547 3.26316 15.5 3.26316ZM13.8684 22.0263H17.1316V25.2895H13.8684V22.0263ZM17.1316 19.5789H13.8684C13.8684 14.2763 18.7632 14.6842 18.7632 11.4211C18.7632 9.62632 17.2947 8.15789 15.5 8.15789C13.7053 8.15789 12.2368 9.62632 12.2368 11.4211H8.97368C8.97368 7.81526 11.8942 4.89474 15.5 4.89474C19.1058 4.89474 22.0263 7.81526 22.0263 11.4211C22.0263 15.5 17.1316 15.9079 17.1316 19.5789Z" fill="#103D81"/>
</svg>
