<svg width="51" height="51" viewBox="0 0 51 51" fill="none" xmlns="http://www.w3.org/2000/svg">
<path d="M28.6875 17H25.5V27.625L34.595 33.0225L36.125 30.4513L28.6875 26.0312V17ZM27.625 6.375C22.5527 6.375 17.6882 8.38995 14.1016 11.9766C10.5149 15.5632 8.5 20.4277 8.5 25.5H2.125L10.54 34.0638L19.125 25.5H12.75C12.75 21.5549 14.3172 17.7714 17.1068 14.9818C19.8964 12.1922 23.6799 10.625 27.625 10.625C31.5701 10.625 35.3536 12.1922 38.1432 14.9818C40.9328 17.7714 42.5 21.5549 42.5 25.5C42.5 29.4451 40.9328 33.2286 38.1432 36.0182C35.3536 38.8078 31.5701 40.375 27.625 40.375C23.5238 40.375 19.805 38.6963 17.1275 35.9975L14.11 39.015C15.8769 40.8013 17.9821 42.2175 20.3027 43.1807C22.6232 44.144 25.1125 44.635 27.625 44.625C32.6973 44.625 37.5618 42.6101 41.1484 39.0234C44.7351 35.4368 46.75 30.5723 46.75 25.5C46.75 20.4277 44.7351 15.5632 41.1484 11.9766C37.5618 8.38995 32.6973 6.375 27.625 6.375Z" fill="#103D81"/>
</svg>
