<svg width="31" height="29" viewBox="0 0 31 29" fill="none" xmlns="http://www.w3.org/2000/svg">
<path d="M26.7727 0H12.6818C11.5607 0 10.4855 0.445372 9.69269 1.23814C8.89992 2.03091 8.45455 3.10613 8.45455 4.22727V14.0909C8.45455 15.2121 8.89992 16.2873 9.69269 17.08C10.4855 17.8728 11.5607 18.3182 12.6818 18.3182H26.7727C27.8939 18.3182 28.9691 17.8728 29.7619 17.08C30.5546 16.2873 31 15.2121 31 14.0909V4.22727C31 3.10613 30.5546 2.03091 29.7619 1.23814C28.9691 0.445372 27.8939 0 26.7727 0ZM28.1818 14.0909C28.1818 14.4646 28.0334 14.823 27.7691 15.0873C27.5049 15.3515 27.1464 15.5 26.7727 15.5H12.6818C12.3081 15.5 11.9497 15.3515 11.6854 15.0873C11.4212 14.823 11.2727 14.4646 11.2727 14.0909V4.22727C11.2727 3.85356 11.4212 3.49515 11.6854 3.2309C11.9497 2.96664 12.3081 2.81818 12.6818 2.81818H26.7727C27.1464 2.81818 27.5049 2.96664 27.7691 3.2309C28.0334 3.49515 28.1818 3.85356 28.1818 4.22727V14.0909ZM23.25 8.45455C22.7283 8.45631 22.226 8.65222 21.8409 9.00409C21.5379 8.72869 21.1614 8.54722 20.7572 8.48174C20.3531 8.41627 19.9385 8.4696 19.5641 8.63527C19.1896 8.80093 18.8714 9.0718 18.648 9.41494C18.4246 9.75808 18.3056 10.1587 18.3056 10.5682C18.3056 10.9776 18.4246 11.3783 18.648 11.7214C18.8714 12.0646 19.1896 12.3354 19.5641 12.5011C19.9385 12.6668 20.3531 12.7201 20.7572 12.6546C21.1614 12.5891 21.5379 12.4077 21.8409 12.1323C22.0954 12.3635 22.4024 12.5292 22.7354 12.615C23.0684 12.7008 23.4173 12.704 23.7518 12.6244C24.0863 12.5448 24.3963 12.3848 24.655 12.1582C24.9137 11.9317 25.1132 11.6455 25.2362 11.3244C25.3593 11.0033 25.4021 10.657 25.361 10.3156C25.3199 9.97422 25.1962 9.64801 25.0005 9.36527C24.8048 9.08253 24.5431 8.8518 24.238 8.6931C23.933 8.5344 23.5938 8.45251 23.25 8.45455ZM21.1364 21.1364C20.7626 21.1364 20.4042 21.2848 20.14 21.5491C19.8757 21.8133 19.7273 22.1717 19.7273 22.5455V23.9545C19.7273 24.3283 19.5788 24.6867 19.3146 24.9509C19.0503 25.2152 18.6919 25.3636 18.3182 25.3636H4.22727C3.85356 25.3636 3.49515 25.2152 3.23089 24.9509C2.96664 24.6867 2.81818 24.3283 2.81818 23.9545V18.3182H4.22727C4.60099 18.3182 4.95939 18.1697 5.22365 17.9055C5.48791 17.6412 5.63636 17.2828 5.63636 16.9091C5.63636 16.5354 5.48791 16.177 5.22365 15.9127C4.95939 15.6485 4.60099 15.5 4.22727 15.5H2.81818V14.0909C2.81818 13.7172 2.96664 13.3588 3.23089 13.0945C3.49515 12.8303 3.85356 12.6818 4.22727 12.6818C4.60099 12.6818 4.95939 12.5334 5.22365 12.2691C5.48791 12.0048 5.63636 11.6464 5.63636 11.2727C5.63636 10.899 5.48791 10.5406 5.22365 10.2764C4.95939 10.0121 4.60099 9.86364 4.22727 9.86364C3.10613 9.86364 2.03091 10.309 1.23814 11.1018C0.445372 11.8945 0 12.9698 0 14.0909V23.9545C0 25.0757 0.445372 26.1509 1.23814 26.9437C2.03091 27.7364 3.10613 28.1818 4.22727 28.1818H18.3182C19.4393 28.1818 20.5145 27.7364 21.3073 26.9437C22.1001 26.1509 22.5455 25.0757 22.5455 23.9545V22.5455C22.5455 22.1717 22.397 21.8133 22.1327 21.5491C21.8685 21.2848 21.5101 21.1364 21.1364 21.1364ZM7.04545 22.5455H8.45455C8.82826 22.5455 9.18667 22.397 9.45092 22.1327C9.71518 21.8685 9.86364 21.5101 9.86364 21.1364C9.86364 20.7626 9.71518 20.4042 9.45092 20.14C9.18667 19.8757 8.82826 19.7273 8.45455 19.7273H7.04545C6.67174 19.7273 6.31333 19.8757 6.04908 20.14C5.78482 20.4042 5.63636 20.7626 5.63636 21.1364C5.63636 21.5101 5.78482 21.8685 6.04908 22.1327C6.31333 22.397 6.67174 22.5455 7.04545 22.5455Z" fill="#103D81"/>
</svg>
